# Blender v2.78 (sub 0) OBJ File: ''
# www.blender.org
mtllib Ship.mtl
o Cube_Cube.003
v 0.743540 0.000803 1.000000
v 0.743540 1.000803 1.000000
v 0.743540 0.000803 -1.000000
v 0.743540 1.000803 -1.000000
v -0.751333 0.000803 0.000000
v -0.751333 0.500803 1.000000
v -0.751333 1.000803 0.000000
v -0.751333 0.500803 -1.000000
v -0.751333 1.000803 -1.000000
v -0.751333 1.000803 1.000000
v -0.751333 0.000803 1.000000
v -0.751333 0.000803 -1.000000
v 2.743540 0.500803 0.000000
v -2.228316 0.500803 0.000000
v -0.751333 0.000803 -0.500000
v -0.751333 0.250803 -1.000000
v -0.751333 0.750803 -1.000000
v -0.751333 1.000803 -0.500000
v -0.751333 1.000803 0.500000
v -0.751333 0.750803 1.000000
v -0.751333 0.000803 0.500000
v -0.751333 0.250803 1.000000
v -0.751333 0.500803 -0.500000
v -0.751333 0.500803 0.500000
v -0.751333 0.250803 0.000000
v -0.751333 0.750803 0.000000
v -0.751333 0.750803 0.500000
v -0.751333 0.250803 0.500000
v -0.751333 0.750803 -0.500000
v -0.751333 0.250803 -0.500000
v 0.743540 0.000803 0.000000
v -0.003897 0.000803 -1.000000
v -0.003897 0.000803 1.000000
v -0.003897 0.000803 0.000000
v -0.004225 -1.995437 -0.998666
v 0.141376 -1.995437 -0.988009
v 0.283874 -1.995437 -0.956266
v 0.420232 -1.995437 -0.904114
v 0.547543 -1.995437 -0.832663
v 0.663094 -1.995437 -0.743438
v 0.764422 -1.995437 -0.638339
v 0.849368 -1.995437 -0.519606
v 0.916121 -1.995437 -0.389770
v 0.963259 -1.995437 -0.251599
v 0.989776 -1.995437 -0.108037
v 0.995108 -1.995437 0.037856
v 0.979141 -1.995437 0.182971
v 0.942215 -1.995437 0.324215
v 0.885117 -1.995437 0.458577
v 0.809065 -1.995437 0.583193
v 0.715679 -1.995437 0.695409
v 0.606949 -1.995437 0.792831
v 0.485193 -1.995437 0.873384
v 0.353006 -1.995437 0.935350
v 0.213206 -1.995437 0.977410
v 0.068771 -1.995437 0.998667
v -0.077220 -1.995437 0.998667
v -0.221655 -1.995437 0.977410
v -0.361455 -1.995437 0.935351
v -0.493642 -1.995437 0.873384
v -0.615398 -1.995437 0.792831
v -0.724128 -1.995437 0.695409
v -0.817514 -1.995437 0.583194
v -0.893567 -1.995437 0.458577
v -0.950664 -1.995437 0.324216
v -0.987590 -1.995437 0.182972
v -1.003558 -1.995437 0.037857
v -0.998226 -1.995437 -0.108036
v -0.971709 -1.995437 -0.251598
v -0.924571 -1.995437 -0.389769
v -0.857819 -1.995437 -0.519605
v -0.772873 -1.995437 -0.638338
v -0.671544 -1.995437 -0.743437
v -0.555994 -1.995437 -0.832663
v -0.428683 -1.995437 -0.904113
v -0.292325 -1.995437 -0.956266
v -0.149827 -1.995437 -0.988009
vn 0.0000 1.0000 0.0000
vn 0.2425 -0.9701 0.0000
vn 0.4472 0.0000 -0.8944
vn 0.0000 0.0000 1.0000
vn -1.0000 0.0000 0.0000
vn 0.4472 0.0000 0.8944
vn 0.2425 0.9701 0.0000
vn 0.0000 0.0000 -1.0000
vn -0.1669 -0.9860 0.0000
vn -0.1669 0.9860 0.0000
vn -0.3207 0.0000 0.9472
vn -0.3207 0.0000 -0.9472
vn 0.0000 -1.0000 0.0000
vn 0.0653 0.4464 -0.8924
vn 0.1946 0.4464 -0.8734
vn 0.3197 0.4464 -0.8358
vn 0.4379 0.4465 -0.7803
vn 0.5469 0.4465 -0.7082
vn 0.6442 0.4465 -0.6210
vn 0.7277 0.4466 -0.5206
vn 0.7957 0.4466 -0.4091
vn 0.8468 0.4467 -0.2889
vn 0.8798 0.4467 -0.1625
vn 0.8940 0.4468 -0.0327
vn 0.8892 0.4469 0.0978
vn 0.8655 0.4469 0.2263
vn 0.8233 0.4470 0.3499
vn 0.7635 0.4471 0.4660
vn 0.6875 0.4471 0.5722
vn 0.5969 0.4472 0.6661
vn 0.4935 0.4473 0.7459
vn 0.3796 0.4473 0.8098
vn 0.2577 0.4474 0.8564
vn 0.1302 0.4474 0.8848
vn 0.0000 0.4474 0.8943
vn -0.1302 0.4474 0.8848
vn -0.2577 0.4474 0.8564
vn -0.3796 0.4474 0.8098
vn -0.4935 0.4474 0.7459
vn -0.5968 0.4474 0.6661
vn -0.6875 0.4473 0.5721
vn -0.7634 0.4473 0.4659
vn -0.8232 0.4472 0.3498
vn -0.8654 0.4472 0.2262
vn -0.8891 0.4471 0.0978
vn -0.8939 0.4470 -0.0327
vn -0.8797 0.4470 -0.1625
vn -0.8467 0.4469 -0.2888
vn -0.7956 0.4468 -0.4091
vn -0.7276 0.4467 -0.5206
vn -0.6441 0.4467 -0.6210
vn -0.5468 0.4466 -0.7082
vn -0.4379 0.4466 -0.7803
vn -0.3196 0.4465 -0.8357
vn -0.1946 0.4465 -0.8734
vn -0.0653 0.4465 -0.8924
usemtl None
s off
f 2//1 4//1 9//1 18//1 7//1 19//1 10//1
f 1//2 31//2 3//2 13//2
f 4//3 13//3 3//3
f 1//4 2//4 10//4 20//4 6//4 22//4 11//4 33//4
f 30//5 23//5 8//5 16//5
f 29//5 18//5 9//5 17//5
f 2//6 1//6 13//6
f 4//7 2//7 13//7
f 4//8 3//8 32//8 12//8 16//8 8//8 17//8 9//8
f 25//9 14//9 30//9
f 27//5 19//5 7//5 26//5
f 26//10 14//10 27//10
f 6//5 20//5 27//5 24//5
f 20//5 10//5 19//5 27//5
f 21//5 28//5 25//5 5//5
f 11//5 22//5 28//5 21//5
f 22//5 6//5 24//5 28//5
f 23//5 29//5 17//5 8//5
f 25//9 28//9 14//9
f 26//5 7//5 18//5 29//5
f 15//5 30//5 16//5 12//5
f 5//5 25//5 30//5 15//5
f 14//11 28//11 24//11
f 24//11 27//11 14//11
f 30//12 14//12 23//12
f 23//12 14//12 29//12
f 14//10 26//10 29//10
f 32//13 34//13 12//13
f 34//13 5//13 12//13
f 3//13 34//13 32//13
f 31//13 34//13 3//13
f 1//13 34//13 31//13
f 33//13 34//13 1//13
f 11//13 34//13 33//13
f 34//13 11//13 5//13
f 35//14 34//14 36//14
f 36//15 34//15 37//15
f 37//16 34//16 38//16
f 38//17 34//17 39//17
f 39//18 34//18 40//18
f 40//19 34//19 41//19
f 41//20 34//20 42//20
f 42//21 34//21 43//21
f 43//22 34//22 44//22
f 44//23 34//23 45//23
f 45//24 34//24 46//24
f 46//25 34//25 47//25
f 47//26 34//26 48//26
f 48//27 34//27 49//27
f 49//28 34//28 50//28
f 50//29 34//29 51//29
f 51//30 34//30 52//30
f 52//31 34//31 53//31
f 53//32 34//32 54//32
f 54//33 34//33 55//33
f 55//34 34//34 56//34
f 56//35 34//35 57//35
f 57//36 34//36 58//36
f 58//37 34//37 59//37
f 59//38 34//38 60//38
f 60//39 34//39 61//39
f 61//40 34//40 62//40
f 62//41 34//41 63//41
f 63//42 34//42 64//42
f 64//43 34//43 65//43
f 65//44 34//44 66//44
f 66//45 34//45 67//45
f 67//46 34//46 68//46
f 68//47 34//47 69//47
f 69//48 34//48 70//48
f 70//49 34//49 71//49
f 71//50 34//50 72//50
f 72//51 34//51 73//51
f 73//52 34//52 74//52
f 74//53 34//53 75//53
f 75//54 34//54 76//54
f 76//55 34//55 77//55
f 77//56 34//56 35//56
f 35//13 36//13 37//13 38//13 39//13 40//13 41//13 42//13 43//13 44//13 45//13 46//13 47//13 48//13 49//13 50//13 51//13 52//13 53//13 54//13 55//13 56//13 57//13 58//13 59//13 60//13 61//13 62//13 63//13 64//13 65//13 66//13 67//13 68//13 69//13 70//13 71//13 72//13 73//13 74//13 75//13 76//13 77//13
